<svg viewBox="0 0 40.5061 19.9829" xmlns="http://www.w3.org/2000/svg" xmlns:xlink="http://www.w3.org/1999/xlink" width="40.506134" height="19.982910" fill="none" customFrame="#000000">
  <path id="Arrow 5" d="M0 -1.5L39 -1.5L39 1.5L0 1.5L0 -1.5ZM36.8787 0L29.4541 -7.42462C28.8601 -8.01859 28.8601 -8.95197 29.4541 -9.54594C30.048 -10.1399 30.9814 -10.1399 31.5754 -9.54594L40.0607 -1.06066C40.6546 -0.46669 40.6546 0.46669 40.0607 1.06066L31.5754 9.54594C30.9814 10.1399 30.048 10.1399 29.4541 9.54594C28.8601 8.95197 28.8601 8.01859 29.4541 7.42462L36.8787 0Z" fill="rgb(0,0,0)" fill-rule="nonzero" transform="matrix(-1,1.22465e-16,-1.22465e-16,-1,40.5061,9.99146)" />
</svg>
