<svg viewBox="0 0 6.66113 16.502" xmlns="http://www.w3.org/2000/svg" xmlns:xlink="http://www.w3.org/1999/xlink" width="6.661133" height="16.501953" fill="none" customFrame="#000000">
	<path id="Arrow 14" d="M0 -0.5L16 -0.5L16 0.5L0 0.5L0 -0.5ZM0.707107 0L3.18198 2.47487C3.37997 2.67286 3.37997 2.98399 3.18198 3.18198C2.98399 3.37997 2.67286 3.37997 2.47487 3.18198L-0.353553 0.353553C-0.551543 0.155563 -0.551543 -0.155563 -0.353553 -0.353553L2.47487 -3.18198C2.67286 -3.37997 2.98399 -3.37997 3.18198 -3.18198C3.37997 -2.98399 3.37997 -2.67286 3.18198 -2.47487L0.707107 0Z" fill="rgb(0,0,0)" fill-rule="nonzero" transform="matrix(6.12323e-17,1,-1,6.12323e-17,3.33057,0.501953)" />
</svg>
