<svg viewBox="0 0 48 48" xmlns="http://www.w3.org/2000/svg" xmlns:xlink="http://www.w3.org/1999/xlink" width="48.000000" height="48.000000" fill="none" customFrame="#000000">
  <g id="user">
    <circle id="Ellipse 9" cx="24" cy="24" r="24" fill="rgb(217,217,217)" />
    <g id="user_icon">
      <path id="Vector" d="M24.9467 9.355L24.9467 6.23667C24.9467 4.5826 24.2896 2.99628 23.12 1.82668C21.9504 0.657077 20.3641 5.53927e-15 18.71 0L6.23667 0C4.5826 2.76964e-15 2.99628 0.657077 1.82668 1.82668C0.657075 2.99628 1.38482e-15 4.5826 0 6.23667L0 9.355" fill-rule="nonzero" stroke="rgb(0,0,0)" stroke-opacity="0.5" stroke-linecap="round" stroke-linejoin="round" stroke-width="2" transform="matrix(-1,0,0,1,36.9468,28.645)" />
      <path id="Vector" d="M6.23667 12.4733C2.79225 12.4733 0 9.68108 0 6.23667C0 2.79225 2.79225 0 6.23667 0C9.68108 0 12.4733 2.79225 12.4733 6.23667C12.4733 9.68108 9.68108 12.4733 6.23667 12.4733Z" stroke="rgb(0,0,0)" stroke-opacity="0.5" stroke-linecap="round" stroke-linejoin="round" stroke-width="2" transform="matrix(-1,0,0,1,30.7101,10)" />
    </g>
  </g>
</svg>
